<svg viewBox="0 0 180 50" fill="none" xmlns="http://www.w3.org/2000/svg">
  <!-- BRU-HART text as paths -->
  <g fill="#1a1a1a">
    <path d="M51.55 13.72Q51.43 13.78 51.55 13.84L51.55 13.84Q52.47 14.34 52.92 15.13Q53.37 15.92 53.37 17.04L53.37 17.04Q53.37 19.04 51.99 20.02Q50.61 21 48.37 21L48.37 21L43.05 21Q42.95 21 42.88 20.93Q42.81 20.86 42.81 20.76L42.81 20.76L42.81 7.24Q42.81 7.14 42.88 7.07Q42.95 7 43.05 7L43.05 7L48.21 7Q50.65 7 51.91 7.92Q53.17 8.84 53.17 10.90L53.17 10.90Q53.17 12.86 51.55 13.72L51.55 13.72ZM46.23 9.84Q46.13 9.84 46.13 9.94L46.13 9.94L46.13 12.46Q46.13 12.56 46.23 12.56L46.23 12.56L48.21 12.56Q49.03 12.56 49.47 12.21Q49.91 11.86 49.91 11.22L49.91 11.22Q49.91 10.56 49.47 10.20Q49.03 9.84 48.21 9.84L48.21 9.84L46.23 9.84ZM48.37 18.14Q49.17 18.14 49.61 17.77Q50.05 17.40 50.05 16.70L50.05 16.70Q50.05 16.02 49.62 15.65Q49.19 15.28 48.37 15.28L48.37 15.28L46.23 15.28Q46.13 15.28 46.13 15.38L46.13 15.38L46.13 18.04Q46.13 18.14 46.23 18.14L46.23 18.14L48.37 18.14Z"/><path d="M62.57 21Q62.37 21 62.29 20.82L62.29 20.82L59.93 15.50Q59.89 15.42 59.81 15.42L59.81 15.42L58.49 15.42Q58.39 15.42 58.39 15.52L58.39 15.52L58.39 20.76Q58.39 20.86 58.32 20.93Q58.25 21 58.15 21L58.15 21L55.31 21Q55.21 21 55.14 20.93Q55.07 20.86 55.07 20.76L55.07 20.76L55.07 7.24Q55.07 7.14 55.14 7.07Q55.21 7 55.31 7L55.31 7L61.25 7Q62.57 7 63.57 7.54Q64.57 8.08 65.12 9.07Q65.67 10.06 65.67 11.34L65.67 11.34Q65.67 12.68 65.01 13.66Q64.35 14.64 63.17 15.08L63.17 15.08Q63.07 15.12 63.11 15.22L63.11 15.22L65.75 20.72Q65.79 20.80 65.79 20.84L65.79 20.84Q65.79 21 65.57 21L65.57 21L62.57 21ZM58.49 9.84Q58.39 9.84 58.39 9.94L58.39 9.94L58.39 12.78Q58.39 12.88 58.49 12.88L58.49 12.88L60.71 12.88Q61.45 12.88 61.91 12.47Q62.37 12.06 62.37 11.38L62.37 11.38Q62.37 10.68 61.91 10.26Q61.45 9.84 60.71 9.84L60.71 9.84L58.49 9.84Z"/><path d="M72.65 21.16Q71.07 21.16 69.85 20.55Q68.63 19.94 67.96 18.82Q67.29 17.70 67.29 16.24L67.29 16.24L67.29 7.24Q67.29 7.14 67.36 7.07Q67.43 7 67.53 7L67.53 7L70.37 7Q70.47 7 70.54 7.07Q70.61 7.14 70.61 7.24L70.61 7.24L70.61 16.24Q70.61 17.18 71.17 17.75Q71.73 18.32 72.65 18.32L72.65 18.32Q73.55 18.32 74.10 17.75Q74.65 17.18 74.65 16.24L74.65 16.24L74.65 7.24Q74.65 7.14 74.72 7.07Q74.79 7 74.89 7L74.89 7L77.73 7Q77.83 7 77.90 7.07Q77.97 7.14 77.97 7.24L77.97 7.24L77.97 16.24Q77.97 17.70 77.31 18.82Q76.65 19.94 75.44 20.55Q74.23 21.16 72.65 21.16L72.65 21.16Z"/><path d="M80.01 14.02Q80.01 13.92 80.08 13.85Q80.15 13.78 80.25 13.78L80.25 13.78L87.05 13.78Q87.15 13.78 87.22 13.85Q87.29 13.92 87.29 14.02L87.29 14.02L87.29 16.38Q87.29 16.48 87.22 16.55Q87.15 16.62 87.05 16.62L87.05 16.62L80.25 16.62Q80.15 16.62 80.08 16.55Q80.01 16.48 80.01 16.38L80.01 16.38L80.01 14.02Z"/><path d="M96.71 7.24Q96.71 7.14 96.78 7.07Q96.85 7 96.95 7L96.95 7L99.79 7Q99.89 7 99.96 7.07Q100.03 7.14 100.03 7.24L100.03 7.24L100.03 20.76Q100.03 20.86 99.96 20.93Q99.89 21 99.79 21L99.79 21L96.95 21Q96.85 21 96.78 20.93Q96.71 20.86 96.71 20.76L96.71 20.76L96.71 15.44Q96.71 15.34 96.61 15.34L96.61 15.34L92.87 15.34Q92.77 15.34 92.77 15.44L92.77 15.44L92.77 20.76Q92.77 20.86 92.70 20.93Q92.63 21 92.53 21L92.53 21L89.69 21Q89.59 21 89.52 20.93Q89.45 20.86 89.45 20.76L89.45 20.76L89.45 7.24Q89.45 7.14 89.52 7.07Q89.59 7 89.69 7L89.69 7L92.53 7Q92.63 7 92.70 7.07Q92.77 7.14 92.77 7.24L92.77 7.24L92.77 12.40Q92.77 12.50 92.87 12.50L92.87 12.50L96.61 12.50Q96.71 12.50 96.71 12.40L96.71 12.40L96.71 7.24Z"/><path d="M111.01 21Q110.79 21 110.73 20.80L110.73 20.80L110.21 19.02Q110.17 18.94 110.11 18.94L110.11 18.94L105.53 18.94Q105.47 18.94 105.43 19.02L105.43 19.02L104.91 20.80Q104.85 21 104.63 21L104.63 21L101.57 21Q101.45 21 101.39 20.93Q101.33 20.86 101.37 20.72L101.37 20.72L105.67 7.20Q105.73 7 105.93 7L105.93 7L109.71 7Q109.91 7 109.97 7.20L109.97 7.20L114.27 20.72Q114.29 20.76 114.29 20.82L114.29 20.82Q114.29 21 114.07 21L114.07 21L111.01 21ZM106.23 16.26Q106.21 16.38 106.31 16.38L106.31 16.38L109.31 16.38Q109.43 16.38 109.39 16.26L109.39 16.26L107.85 11.08Q107.83 11 107.79 11.01Q107.75 11.02 107.73 11.08L107.73 11.08L106.23 16.26Z"/><path d="M123.11 21Q122.91 21 122.83 20.82L122.83 20.82L120.47 15.50Q120.43 15.42 120.35 15.42L120.35 15.42L119.03 15.42Q118.93 15.42 118.93 15.52L118.93 15.52L118.93 20.76Q118.93 20.86 118.86 20.93Q118.79 21 118.69 21L118.69 21L115.85 21Q115.75 21 115.68 20.93Q115.61 20.86 115.61 20.76L115.61 20.76L115.61 7.24Q115.61 7.14 115.68 7.07Q115.75 7 115.85 7L115.85 7L121.79 7Q123.11 7 124.11 7.54Q125.11 8.08 125.66 9.07Q126.21 10.06 126.21 11.34L126.21 11.34Q126.21 12.68 125.55 13.66Q124.89 14.64 123.71 15.08L123.71 15.08Q123.61 15.12 123.65 15.22L123.65 15.22L126.29 20.72Q126.33 20.80 126.33 20.84L126.33 20.84Q126.33 21 126.11 21L126.11 21L123.11 21ZM119.03 9.84Q118.93 9.84 118.93 9.94L118.93 9.94L118.93 12.78Q118.93 12.88 119.03 12.88L119.03 12.88L121.25 12.88Q121.99 12.88 122.45 12.47Q122.91 12.06 122.91 11.38L122.91 11.38Q122.91 10.68 122.45 10.26Q121.99 9.84 121.25 9.84L121.25 9.84L119.03 9.84Z"/><path d="M137.77 7Q137.87 7 137.94 7.07Q138.01 7.14 138.01 7.24L138.01 7.24L138.01 9.62Q138.01 9.72 137.94 9.79Q137.87 9.86 137.77 9.86L137.77 9.86L134.27 9.86Q134.17 9.86 134.17 9.96L134.17 9.96L134.17 20.76Q134.17 20.86 134.10 20.93Q134.03 21 133.93 21L133.93 21L131.09 21Q130.99 21 130.92 20.93Q130.85 20.86 130.85 20.76L130.85 20.76L130.85 9.96Q130.85 9.86 130.75 9.86L130.75 9.86L127.37 9.86Q127.27 9.86 127.20 9.79Q127.13 9.72 127.13 9.62L127.13 9.62L127.13 7.24Q127.13 7.14 127.20 7.07Q127.27 7 127.37 7L127.37 7L137.77 7Z"/>
  </g>

  <!-- First chevron tail -->
  <polyline
    points="4,22 10,28 4,34"
    stroke="#1a1a1a"
    stroke-width="2"
    fill="none"
  />

  <!-- Second chevron tail -->
  <polyline
    points="12,22 18,28 12,34"
    stroke="#1a1a1a"
    stroke-width="2"
    fill="none"
  />

  <!-- Arrow line -->
  <line
    x1="20"
    y1="28"
    x2="168"
    y2="28"
    stroke="#1a1a1a"
    stroke-width="2"
  />

  <!-- Arrow head -->
  <polygon
    points="180,28 168,22 168,34"
    fill="#1a1a1a"
  />

  <!-- INDUSTRIES text as paths -->
  <g fill="#1a1a1a">
    <path d="M44.59 33.79Q44.59 33.70 44.68 33.70L44.68 33.70L45.36 33.70Q45.45 33.70 45.45 33.79L45.45 33.79L45.45 39.91Q45.45 40 45.36 40L45.36 40L44.68 40Q44.59 40 44.59 39.91L44.59 39.91L44.59 33.79Z"/><path d="M55.57 33.79Q55.57 33.70 55.66 33.70L55.66 33.70L56.34 33.70Q56.43 33.70 56.43 33.79L56.43 33.79L56.43 39.91Q56.43 40 56.34 40L56.34 40L55.68 40Q55.62 40 55.58 39.94L55.58 39.94L52.76 35.34Q52.75 35.31 52.73 35.32Q52.71 35.32 52.71 35.35L52.71 35.35L52.72 39.91Q52.72 40 52.63 40L52.63 40L51.95 40Q51.86 40 51.86 39.91L51.86 39.91L51.86 33.79Q51.86 33.70 51.95 33.70L51.95 33.70L52.61 33.70Q52.68 33.70 52.72 33.76L52.72 33.76L55.53 38.36Q55.54 38.39 55.56 38.38Q55.58 38.38 55.58 38.35L55.58 38.35L55.57 33.79Z"/><path d="M62.84 33.79Q62.84 33.70 62.93 33.70L62.93 33.70L65.10 33.70Q66.04 33.70 66.60 34.19Q67.16 34.68 67.16 35.50L67.16 35.50L67.16 38.20Q67.16 39.02 66.60 39.51Q66.04 40 65.10 40L65.10 40L62.93 40Q62.84 40 62.84 39.91L62.84 39.91L62.84 33.79ZM65.14 39.25Q65.66 39.25 65.98 38.93Q66.29 38.61 66.30 38.07L66.30 38.07L66.30 35.63Q66.30 35.09 65.98 34.77Q65.67 34.45 65.14 34.45L65.14 34.45L63.74 34.45Q63.71 34.45 63.71 34.48L63.71 34.48L63.71 39.22Q63.71 39.25 63.74 39.25L63.74 39.25L65.14 39.25Z"/><path d="M75.48 40.07Q74.84 40.07 74.33 39.82Q73.83 39.56 73.55 39.09Q73.28 38.61 73.28 38.00L73.28 38.00L73.28 33.79Q73.28 33.70 73.37 33.70L73.37 33.70L74.05 33.70Q74.14 33.70 74.14 33.79L74.14 33.79L74.14 38.02Q74.14 38.60 74.51 38.97Q74.88 39.33 75.48 39.33L75.48 39.33Q76.09 39.33 76.46 38.97Q76.83 38.60 76.83 38.02L76.83 38.02L76.83 33.79Q76.83 33.70 76.92 33.70L76.92 33.70L77.61 33.70Q77.70 33.70 77.70 33.79L77.70 33.79L77.70 38.00Q77.70 38.61 77.42 39.09Q77.15 39.56 76.65 39.82Q76.14 40.07 75.48 40.07L75.48 40.07Z"/><path d="M85.88 40.07Q85.18 40.07 84.67 39.86Q84.17 39.64 83.89 39.24Q83.62 38.85 83.62 38.32L83.62 38.32L83.62 38.06Q83.62 37.97 83.71 37.97L83.71 37.97L84.36 37.97Q84.45 37.97 84.45 38.06L84.45 38.06L84.45 38.27Q84.45 38.73 84.85 39.03Q85.25 39.33 85.94 39.33L85.94 39.33Q86.56 39.33 86.87 39.06Q87.19 38.80 87.19 38.38L87.19 38.38Q87.19 38.10 87.03 37.90Q86.87 37.70 86.56 37.54Q86.24 37.37 85.65 37.14L85.65 37.14Q84.99 36.89 84.61 36.68Q84.23 36.47 83.98 36.13Q83.72 35.80 83.72 35.28L83.72 35.28Q83.72 34.51 84.28 34.07Q84.83 33.63 85.78 33.63L85.78 33.63Q86.44 33.63 86.95 33.85Q87.45 34.08 87.73 34.48Q88.00 34.89 88.00 35.42L88.00 35.42L88.00 35.60Q88.00 35.69 87.91 35.69L87.91 35.69L87.23 35.69Q87.14 35.69 87.14 35.60L87.14 35.60L87.14 35.46Q87.14 35.00 86.77 34.69Q86.40 34.38 85.74 34.38L85.74 34.38Q85.18 34.38 84.88 34.60Q84.57 34.83 84.57 35.27L84.57 35.27Q84.57 35.56 84.72 35.75Q84.88 35.94 85.18 36.09Q85.48 36.24 86.10 36.47L86.10 36.47Q86.74 36.72 87.14 36.94Q87.53 37.15 87.79 37.49Q88.05 37.84 88.05 38.35L88.05 38.35Q88.05 39.15 87.47 39.61Q86.89 40.07 85.88 40.07L85.88 40.07Z"/><path d="M97.92 33.70Q98.01 33.70 98.01 33.79L98.01 33.79L98.01 34.37Q98.01 34.46 97.92 34.46L97.92 34.46L96.20 34.46Q96.17 34.46 96.17 34.49L96.17 34.49L96.17 39.91Q96.17 40 96.08 40L96.08 40L95.39 40Q95.30 40 95.30 39.91L95.30 39.91L95.30 34.49Q95.30 34.46 95.27 34.46L95.27 34.46L93.62 34.46Q93.53 34.46 93.53 34.37L93.53 34.37L93.53 33.79Q93.53 33.70 93.62 33.70L93.62 33.70L97.92 33.70Z"/><path d="M107.49 40Q107.41 40 107.39 39.94L107.39 39.94L106.13 37.25Q106.12 37.22 106.09 37.22L106.09 37.22L104.80 37.22Q104.77 37.22 104.77 37.26L104.77 37.26L104.77 39.91Q104.77 40 104.68 40L104.68 40L103.99 40Q103.90 40 103.90 39.91L103.90 39.91L103.90 33.79Q103.90 33.70 103.99 33.70L103.99 33.70L106.41 33.70Q106.95 33.70 107.36 33.92Q107.76 34.15 107.99 34.55Q108.21 34.96 108.21 35.49L108.21 35.49Q108.21 36.11 107.88 36.55Q107.55 36.99 106.98 37.15L106.98 37.15Q106.95 37.16 106.96 37.19L106.96 37.19L108.27 39.89Q108.28 39.91 108.28 39.94L108.28 39.94Q108.28 40 108.21 40L108.21 40L107.49 40ZM104.80 34.45Q104.77 34.45 104.77 34.48L104.77 34.48L104.77 36.50Q104.77 36.53 104.80 36.53L104.80 36.53L106.30 36.53Q106.77 36.53 107.07 36.25Q107.36 35.97 107.36 35.50L107.36 35.50Q107.36 35.03 107.07 34.74Q106.77 34.45 106.30 34.45L106.30 34.45L104.80 34.45Z"/><path d="M114.32 33.79Q114.32 33.70 114.41 33.70L114.41 33.70L115.10 33.70Q115.19 33.70 115.19 33.79L115.19 33.79L115.19 39.91Q115.19 40 115.10 40L115.10 40L114.41 40Q114.32 40 114.32 39.91L114.32 39.91L114.32 33.79Z"/><path d="M125.77 34.36Q125.77 34.45 125.68 34.45L125.68 34.45L122.50 34.45Q122.46 34.45 122.46 34.48L122.46 34.48L122.46 36.42Q122.46 36.45 122.50 36.45L122.50 36.45L124.69 36.45Q124.78 36.45 124.78 36.54L124.78 36.54L124.78 37.11Q124.78 37.20 124.69 37.20L124.69 37.20L122.50 37.20Q122.46 37.20 122.46 37.24L122.46 37.24L122.46 39.22Q122.46 39.25 122.50 39.25L122.50 39.25L125.68 39.25Q125.77 39.25 125.77 39.34L125.77 39.34L125.77 39.91Q125.77 40 125.68 40L125.68 40L121.69 40Q121.60 40 121.60 39.91L121.60 39.91L121.60 33.79Q121.60 33.70 121.69 33.70L121.69 33.70L125.68 33.70Q125.77 33.70 125.77 33.79L125.77 33.79L125.77 34.36Z"/><path d="M133.65 40.07Q132.95 40.07 132.44 39.86Q131.94 39.64 131.66 39.24Q131.39 38.85 131.39 38.32L131.39 38.32L131.39 38.06Q131.39 37.97 131.48 37.97L131.48 37.97L132.13 37.97Q132.22 37.97 132.22 38.06L132.22 38.06L132.22 38.27Q132.22 38.73 132.62 39.03Q133.02 39.33 133.71 39.33L133.71 39.33Q134.33 39.33 134.64 39.06Q134.96 38.80 134.96 38.38L134.96 38.38Q134.96 38.10 134.80 37.90Q134.64 37.70 134.32 37.54Q134.01 37.37 133.42 37.14L133.42 37.14Q132.76 36.89 132.38 36.68Q132.00 36.47 131.75 36.13Q131.49 35.80 131.49 35.28L131.49 35.28Q131.49 34.51 132.05 34.07Q132.60 33.63 133.55 33.63L133.55 33.63Q134.21 33.63 134.72 33.85Q135.22 34.08 135.49 34.48Q135.77 34.89 135.77 35.42L135.77 35.42L135.77 35.60Q135.77 35.69 135.68 35.69L135.68 35.69L135.00 35.69Q134.91 35.69 134.91 35.60L134.91 35.60L134.91 35.46Q134.91 35.00 134.54 34.69Q134.17 34.38 133.51 34.38L133.51 34.38Q132.95 34.38 132.65 34.60Q132.34 34.83 132.34 35.27L132.34 35.27Q132.34 35.56 132.49 35.75Q132.65 35.94 132.95 36.09Q133.25 36.24 133.87 36.47L133.87 36.47Q134.51 36.72 134.91 36.94Q135.30 37.15 135.56 37.49Q135.82 37.84 135.82 38.35L135.82 38.35Q135.82 39.15 135.24 39.61Q134.66 40.07 133.65 40.07L133.65 40.07Z"/>
  </g>
</svg>