<svg xmlns="http://www.w3.org/2000/svg" viewBox="0 0 32 32">
  <rect width="32" height="32" rx="6" fill="#1e3a5f"/>
  <!-- B letter -->
  <path d="M7 7h6c2.5 0 4.5 1.5 4.5 4 0 1.5-.8 2.7-2 3.3 1.5.5 2.5 2 2.5 3.7 0 2.8-2.2 4.5-5 4.5H7V7zm3 2.5v4h2.5c1.2 0 2-.8 2-2s-.8-2-2-2H10zm0 6.5v4.5h3c1.4 0 2.2-.9 2.2-2.2 0-1.4-1-2.3-2.2-2.3H10z" fill="white"/>
  <!-- Arrow through -->
  <path d="M6 16h20M22 12l4 4-4 4" stroke="white" stroke-width="2.5" stroke-linecap="round" stroke-linejoin="round" fill="none"/>
</svg>
